<mxfile host="65bd71144e">
    <diagram id="mJtwf5pUPDsy-Glc759V" name="Page-1">
        <mxGraphModel dx="658" dy="571" grid="1" gridSize="10" guides="1" tooltips="1" connect="1" arrows="1" fold="1" page="1" pageScale="1" pageWidth="850" pageHeight="1100" math="0" shadow="0">
            <root>
                <mxCell id="0"/>
                <mxCell id="1" parent="0"/>
                <mxCell id="6" value="" style="edgeStyle=none;html=1;fontFamily=Comic Sans MS;fontSize=20;fontColor=#000000;" parent="1" source="4" target="5" edge="1">
                    <mxGeometry relative="1" as="geometry"/>
                </mxCell>
                <mxCell id="4" value="&lt;font style=&quot;font-size: 20px;&quot; color=&quot;#000000&quot;&gt;Start&lt;/font&gt;" style="ellipse;whiteSpace=wrap;html=1;labelBackgroundColor=none;labelBorderColor=none;fontFamily=Comic Sans MS;fillColor=#f5f5f5;strokeColor=#666666;fontColor=#333333;fontSize=20;fontStyle=1" parent="1" vertex="1">
                    <mxGeometry x="359.87" y="40" width="120" height="80" as="geometry"/>
                </mxCell>
                <mxCell id="15" value="" style="edgeStyle=none;html=1;" edge="1" parent="1" source="5" target="14">
                    <mxGeometry relative="1" as="geometry"/>
                </mxCell>
                <mxCell id="5" value="&lt;u&gt;Define&lt;/u&gt;: n,arrX[],arrY[],sumX,sumY,&lt;br&gt;sumPowX,sumPowY,sumXY,&lt;br&gt;numerator,demoni1,demoni2" style="shape=Rectangle;perimeter=RectanglePerimeter;whiteSpace=wrap;html=1;fixedSize=1;labelBackgroundColor=none;labelBorderColor=none;fontFamily=Comic Sans MS;fontSize=20;fontColor=#333333;fillColor=#f5f5f5;strokeColor=#666666;fontStyle=1" parent="1" vertex="1">
                    <mxGeometry x="169.37" y="150" width="502" height="140" as="geometry"/>
                </mxCell>
                <mxCell id="12" value="" style="edgeStyle=none;html=1;fontFamily=Comic Sans MS;fontSize=20;fontColor=#000000;" parent="1" source="9" target="11" edge="1">
                    <mxGeometry relative="1" as="geometry"/>
                </mxCell>
                <mxCell id="9" value="Print correl" style="shape=parallelogram;perimeter=parallelogramPerimeter;whiteSpace=wrap;html=1;fixedSize=1;labelBackgroundColor=none;labelBorderColor=none;fontFamily=Comic Sans MS;fontSize=20;fontColor=#333333;fillColor=#f5f5f5;strokeColor=#666666;fontStyle=1" parent="1" vertex="1">
                    <mxGeometry x="337.38" y="1310" width="175" height="70" as="geometry"/>
                </mxCell>
                <mxCell id="11" value="&lt;font style=&quot;font-size: 20px;&quot; color=&quot;#000000&quot;&gt;End&lt;/font&gt;" style="ellipse;whiteSpace=wrap;html=1;labelBackgroundColor=none;labelBorderColor=none;fontFamily=Comic Sans MS;fillColor=#f5f5f5;strokeColor=#666666;fontColor=#333333;fontSize=20;fontStyle=1" parent="1" vertex="1">
                    <mxGeometry x="364.38" y="1410" width="120" height="80" as="geometry"/>
                </mxCell>
                <mxCell id="17" value="" style="edgeStyle=none;html=1;" edge="1" parent="1" source="14" target="16">
                    <mxGeometry relative="1" as="geometry"/>
                </mxCell>
                <mxCell id="14" value="&lt;u&gt;Get:&lt;/u&gt; n&lt;u&gt;,&lt;/u&gt;Xs" style="shape=parallelogram;perimeter=parallelogramPerimeter;whiteSpace=wrap;html=1;fixedSize=1;labelBackgroundColor=none;labelBorderColor=none;fontFamily=Comic Sans MS;fontSize=20;fontColor=#333333;fillColor=#f5f5f5;strokeColor=#666666;fontStyle=1" vertex="1" parent="1">
                    <mxGeometry x="332.87" y="320" width="175" height="70" as="geometry"/>
                </mxCell>
                <mxCell id="19" value="" style="edgeStyle=none;html=1;" edge="1" parent="1" source="16" target="18">
                    <mxGeometry relative="1" as="geometry"/>
                </mxCell>
                <mxCell id="16" value="&lt;u&gt;Calc:&lt;/u&gt; sumX,sumPowX" style="rounded=0;whiteSpace=wrap;html=1;labelBackgroundColor=none;labelBorderColor=none;fontFamily=Comic Sans MS;fontSize=20;fontColor=#333333;fillColor=#f5f5f5;strokeColor=#666666;fontStyle=1" vertex="1" parent="1">
                    <mxGeometry x="300.62" y="420" width="239.5" height="70" as="geometry"/>
                </mxCell>
                <mxCell id="24" value="" style="edgeStyle=none;html=1;" edge="1" parent="1" source="18" target="23">
                    <mxGeometry relative="1" as="geometry"/>
                </mxCell>
                <mxCell id="18" value="&lt;u&gt;Get:&lt;/u&gt; Ys" style="shape=parallelogram;perimeter=parallelogramPerimeter;whiteSpace=wrap;html=1;fixedSize=1;fontSize=20;fontFamily=Comic Sans MS;fillColor=#f5f5f5;strokeColor=#666666;fontColor=#333333;rounded=0;labelBackgroundColor=none;labelBorderColor=none;fontStyle=1;" vertex="1" parent="1">
                    <mxGeometry x="360.37" y="520" width="120" height="60" as="geometry"/>
                </mxCell>
                <mxCell id="28" value="" style="edgeStyle=none;html=1;" edge="1" parent="1" source="23" target="27">
                    <mxGeometry relative="1" as="geometry"/>
                </mxCell>
                <mxCell id="23" value="&lt;u&gt;Calc:&lt;/u&gt; sumY,sumPowY" style="rounded=0;whiteSpace=wrap;html=1;labelBackgroundColor=none;labelBorderColor=none;fontFamily=Comic Sans MS;fontSize=20;fontColor=#333333;fillColor=#f5f5f5;strokeColor=#666666;fontStyle=1" vertex="1" parent="1">
                    <mxGeometry x="299.37" y="610" width="239.5" height="70" as="geometry"/>
                </mxCell>
                <mxCell id="31" value="" style="edgeStyle=none;html=1;" edge="1" parent="1" source="27" target="29">
                    <mxGeometry relative="1" as="geometry"/>
                </mxCell>
                <mxCell id="27" value="&lt;u&gt;Calc:&lt;/u&gt; sumXY" style="rounded=0;whiteSpace=wrap;html=1;labelBackgroundColor=none;labelBorderColor=none;fontFamily=Comic Sans MS;fontSize=20;fontColor=#333333;fillColor=#f5f5f5;strokeColor=#666666;fontStyle=1" vertex="1" parent="1">
                    <mxGeometry x="299.37" y="710" width="239.5" height="70" as="geometry"/>
                </mxCell>
                <mxCell id="34" value="" style="edgeStyle=none;html=1;" edge="1" parent="1" source="29" target="32">
                    <mxGeometry relative="1" as="geometry"/>
                </mxCell>
                <mxCell id="29" value="&amp;nbsp;&lt;u&gt;Calc:&lt;/u&gt;&amp;nbsp;numerator = (n x sumXY) - (sumX x sumY)" style="rounded=0;whiteSpace=wrap;html=1;labelBackgroundColor=none;labelBorderColor=none;fontFamily=Comic Sans MS;fontSize=20;fontColor=#333333;fillColor=#f5f5f5;strokeColor=#666666;fontStyle=1;align=left;" vertex="1" parent="1">
                    <mxGeometry x="174.87" y="800" width="500" height="100" as="geometry"/>
                </mxCell>
                <mxCell id="35" value="" style="edgeStyle=none;html=1;" edge="1" parent="1" source="32" target="33">
                    <mxGeometry relative="1" as="geometry"/>
                </mxCell>
                <mxCell id="32" value="&amp;nbsp;&lt;u&gt;Calc:&lt;/u&gt;&amp;nbsp;demoni1= sqrt[(n x sumPowX) - pow(sumX,2)]" style="rounded=0;whiteSpace=wrap;html=1;labelBackgroundColor=none;labelBorderColor=none;fontFamily=Comic Sans MS;fontSize=20;fontColor=#333333;fillColor=#f5f5f5;strokeColor=#666666;fontStyle=1;align=left;" vertex="1" parent="1">
                    <mxGeometry x="162" y="930" width="525.75" height="100" as="geometry"/>
                </mxCell>
                <mxCell id="37" value="" style="edgeStyle=none;html=1;" edge="1" parent="1" source="33" target="36">
                    <mxGeometry relative="1" as="geometry"/>
                </mxCell>
                <mxCell id="33" value="&amp;nbsp;&lt;u&gt;Calc:&lt;/u&gt;&amp;nbsp;demoni2= sqrt[(n x sumPowY) - pow(sumY,2)]" style="rounded=0;whiteSpace=wrap;html=1;labelBackgroundColor=none;labelBorderColor=none;fontFamily=Comic Sans MS;fontSize=20;fontColor=#333333;fillColor=#f5f5f5;strokeColor=#666666;fontStyle=1;align=left;" vertex="1" parent="1">
                    <mxGeometry x="162" y="1060" width="525.75" height="100" as="geometry"/>
                </mxCell>
                <mxCell id="38" value="" style="edgeStyle=none;html=1;" edge="1" parent="1" source="36" target="9">
                    <mxGeometry relative="1" as="geometry"/>
                </mxCell>
                <mxCell id="36" value="&lt;u&gt;Calc:&lt;/u&gt;&amp;nbsp;correl = numerator / (demoni1 * demoni2)" style="rounded=0;whiteSpace=wrap;html=1;labelBackgroundColor=none;labelBorderColor=none;fontFamily=Comic Sans MS;fontSize=20;fontColor=#333333;fillColor=#f5f5f5;strokeColor=#666666;fontStyle=1" vertex="1" parent="1">
                    <mxGeometry x="180" y="1190" width="489.75" height="80" as="geometry"/>
                </mxCell>
            </root>
        </mxGraphModel>
    </diagram>
</mxfile>